<svg width="572" height="207" viewBox="0 0 572 207" fill="none" xmlns="http://www.w3.org/2000/svg">
<path d="M365.38 61.765L343.266 151.15C342.082 138.596 341.505 125.68 341.568 112.639C341.642 97.0323 342.45 81.5128 343.975 66.509L344.34 62.915L309.633 59.631L308.643 62.1382C305.54 69.9997 302.465 77.6397 299.504 84.8508C297.619 89.4382 295.77 94.2044 293.973 99.0949C291.994 94.285 289.999 89.62 288.005 85.1534C284.864 78.1184 281.608 70.618 278.331 62.8597L277.335 60.5057L242.075 62.885L242.378 66.5183C243.671 81.9875 244.59 97.6958 245.113 113.201C245.632 128.651 245.687 144.43 245.27 160.1L245.176 163.646L272.223 164.671L272.463 161.199C273.061 152.492 273.495 143.791 273.748 135.334C273.84 132.154 273.923 128.965 273.992 125.774C274.415 126.76 274.834 127.747 275.247 128.73L283.671 148.742L305.068 148.894L305.954 146.561C307.807 141.678 309.797 136.576 311.867 131.384C311.853 133.211 311.851 135.028 311.864 136.836C311.914 144.963 312.204 153.232 312.728 161.407L312.965 165.087L344.451 162.202L344.116 159.289L367.508 164.612L372.037 149.2C375.394 148.844 378.764 148.472 382.147 148.082C385.327 147.72 388.575 147.392 391.839 147.105L396.882 164.594L423.005 158.611L398.769 61.7408L365.38 61.765ZM379.147 124.448L382.116 114.741L384.998 124.444L379.147 124.448Z" fill="#016B5F"/>
<path d="M551.177 159.887C550.825 144.174 550.924 128.371 551.471 112.911C552.013 97.4548 553.021 81.7339 554.463 66.1885L554.802 62.5282L523.227 60.3693L523.016 63.9883C522.586 71.4247 522.305 78.9128 522.182 86.2418C522.077 92.3261 522.017 98.5009 522.004 104.645C520.157 104.575 518.282 104.526 516.396 104.502C514.486 104.477 512.573 104.46 510.663 104.451C510.821 98.5208 511.023 92.6373 511.265 86.9197C511.563 79.9208 512.011 72.8152 512.6 65.7987L512.913 62.072L481.382 60.747L481.323 62.8188L411.723 60.7143L411.037 88.3751L430.232 88.6198C430.133 112.718 430.547 137.211 431.463 161.481L431.597 165.004L458.62 164.461L458.662 160.987C458.815 148.528 459.137 135.86 459.619 123.334C460.058 111.968 460.573 100.463 461.147 89.0789L480.935 89.324C480.951 113.531 481.991 137.753 484.047 161.615L484.349 165.118L511.246 163.352L511.118 159.868C510.941 155.053 510.791 150.281 510.657 145.55C510.554 141.838 510.49 138.094 510.468 134.382C512.595 134.072 514.721 133.801 516.821 133.569C518.759 133.358 520.714 133.163 522.667 132.986C522.817 137.133 522.994 141.26 523.196 145.299C523.46 150.615 523.813 156.001 524.247 161.311L524.528 164.786L551.252 163.368L551.177 159.887Z" fill="#016B5F"/>
<path d="M343.656 56.4496C342.115 71.6218 341.305 87.1098 341.232 102.926C341.154 118.739 341.98 134.189 343.715 149.268L319.553 151.481C319.03 143.298 318.748 135.174 318.699 127.116C318.647 119.057 318.841 110.979 319.265 102.878C316.768 108.308 314.427 113.761 312.234 119.235C310.042 124.711 307.911 130.162 305.85 135.592L289.307 135.474C286.806 129.531 284.306 123.587 281.802 117.64C279.3 111.697 276.668 105.751 273.909 99.8078C273.828 108.427 273.661 117.002 273.411 125.534C273.157 134.064 272.726 142.643 272.134 151.258L252.104 150.498C252.523 134.725 252.472 119.02 251.946 103.381C251.42 87.7389 250.504 72.1183 249.201 56.5204L278.275 54.5601C281.554 62.3173 284.786 69.768 287.98 76.9183C291.169 84.0691 294.318 91.6067 297.427 99.5336C300.178 91.5167 303.058 83.8442 306.068 76.5159C309.08 69.188 312.133 61.6018 315.228 53.759L343.656 56.4496Z" fill="#00A47A"/>
<path d="M278.547 75.2449C278.891 75.2431 279.194 75.2037 279.452 75.1162C279.968 74.9438 280.374 74.5784 280.678 74.0151C280.982 73.4582 280.954 72.8739 280.612 72.2698C279.92 70.2007 279.08 68.2212 278.091 66.3246C277.096 64.431 275.996 62.5361 274.789 60.6423C274.443 60.2109 273.993 59.9095 273.431 59.7381C272.869 59.5654 272.287 59.694 271.686 60.1254C271.084 60.3844 270.722 60.8176 270.589 61.4197C270.461 62.0225 270.61 62.6268 271.045 63.2278C272.162 64.9531 273.155 66.698 274.018 68.4627C274.879 70.2297 275.656 72.0162 276.347 73.823C276.779 74.7741 277.515 75.2444 278.547 75.2449Z" fill="white"/>
<path d="M282.166 81.1883C283.284 81.1871 283.846 80.4975 283.847 79.1213C283.847 78.6034 283.694 78.1504 283.393 77.7622C283.092 77.3739 282.682 77.1821 282.166 77.1825C281.474 77.1832 280.959 77.3771 280.613 77.7656C280.268 78.1553 280.098 78.6059 280.101 79.123C280.099 80.5029 280.79 81.1921 282.166 81.1883Z" fill="white"/>
<path d="M335.147 83.2153C335.664 83.2164 336.091 83.0016 336.437 82.5671C336.783 82.1388 336.956 81.664 336.953 81.1459C336.951 79.7682 336.348 79.0777 335.143 79.078C333.676 79.0802 332.95 79.7729 332.949 81.1487C332.949 81.6665 333.143 82.1419 333.532 82.5685C333.92 83.0038 334.456 83.2149 335.147 83.2153Z" fill="white"/>
<path d="M337.983 74.9421C338.239 72.8721 338.497 70.786 338.757 68.6728C339.013 66.5602 339.226 64.4299 339.401 62.2711C339.483 61.5814 339.309 61.0269 338.882 60.5931C338.45 60.1634 337.888 59.9459 337.201 59.9485C336.595 59.8613 336.078 60.0112 335.648 60.4028C335.22 60.7884 334.959 61.2858 334.874 61.8879C334.703 63.9561 334.51 66.0223 334.297 68.0928C334.084 70.1621 333.802 72.1459 333.461 74.0394C333.378 74.7314 333.526 75.3319 333.914 75.8495C334.304 76.3675 334.839 76.712 335.529 76.8843L335.789 76.8846C336.306 76.8818 336.779 76.6916 337.209 76.2999C337.639 75.9109 337.896 75.4589 337.983 74.9421Z" fill="white"/>
<path d="M399.216 55.6332L371.438 55.6538L349.013 146.287L368.264 150.67L372.519 136.188C376.653 135.756 380.809 135.3 384.989 134.821C389.166 134.345 393.406 133.933 397.715 133.584L402.636 150.642L421.886 146.231L399.216 55.6332ZM377.547 118.345L385.413 92.6138L393.052 118.331L377.547 118.345Z" fill="#00A47A"/>
<path d="M395.869 75.4111C396.13 76.7062 396.906 77.351 398.195 77.3489L398.453 77.2203C399.057 77.2222 399.532 76.9623 399.876 76.4452C400.217 75.9263 400.304 75.3248 400.131 74.6345C399.699 72.2224 399.137 69.8092 398.447 67.3975C397.756 64.9856 396.936 62.5286 395.988 60.0297C395.209 58.8244 394.133 58.4801 392.757 58.9992C392.154 59.258 391.724 59.6458 391.464 60.1622C391.206 60.6801 391.25 61.2832 391.596 61.9715C392.543 64.2158 393.384 66.4525 394.119 68.694C394.854 70.9357 395.438 73.1764 395.869 75.4111Z" fill="white"/>
<path d="M399.883 84.201C400.482 84.2009 400.98 84.0056 401.368 83.6198C401.754 83.2314 401.95 82.7762 401.948 82.2592C401.947 80.8826 401.254 80.1931 399.878 80.1945C399.362 80.1947 398.909 80.3883 398.523 80.7755C398.135 81.1625 397.941 81.6617 397.942 82.2645C397.94 82.7822 398.136 83.2354 398.523 83.622C398.913 84.0078 399.366 84.2011 399.883 84.201Z" fill="white"/>
<path d="M481.005 56.6045L480.759 75.9969L460.991 75.7524C460.339 88.337 459.772 100.917 459.286 113.501C458.801 126.084 458.48 138.667 458.325 151.248L438.297 151.65C437.332 126.145 436.927 100.719 437.085 75.3829L417.964 75.1384L418.469 54.7142L481.005 56.6045Z" fill="#00A47A"/>
<path d="M470.027 63.4646C471.406 63.6383 472.182 62.9047 472.352 61.2641C472.438 60.5762 472.286 60.0164 471.9 59.5877C471.512 59.1536 470.974 58.8961 470.284 58.8109C468.216 58.6394 466.126 58.5569 464.018 58.5563C461.906 58.5602 459.859 58.5617 457.879 58.5609C457.187 58.5615 456.63 58.8212 456.201 59.3377C455.769 59.8575 455.556 60.4172 455.554 61.0195C455.556 61.6223 455.769 62.1405 456.2 62.57C456.631 63.0031 457.146 63.2609 457.754 63.3447L458.011 63.3443C459.992 63.2591 461.974 63.2128 463.954 63.211C465.937 63.2084 467.962 63.2936 470.027 63.4646Z" fill="white"/>
<path d="M476.104 63.7199C476.703 63.7186 477.22 63.5027 477.652 63.0727C478.084 62.6402 478.297 62.1653 478.297 61.6463C478.297 61.0463 478.08 60.5738 477.65 60.2256C477.218 59.882 476.701 59.7112 476.102 59.7101C475.668 59.7106 475.239 59.8839 474.809 60.2306C474.376 60.5742 474.163 61.0479 474.162 61.6504C474.161 62.1667 474.376 62.6415 474.809 63.0724C475.239 63.5056 475.668 63.7176 476.104 63.7199Z" fill="white"/>
<path d="M554.141 56.1612C552.685 71.8479 551.683 87.4898 551.137 103.088C550.584 118.687 550.487 134.415 550.842 150.27L531.072 151.32C530.637 145.976 530.292 140.678 530.028 135.419C529.766 130.165 529.547 124.821 529.373 119.392C526.078 119.651 522.849 119.957 519.683 120.304C516.518 120.652 513.329 121.086 510.12 121.606C510.123 126.432 510.191 131.217 510.323 135.951C510.455 140.695 510.607 145.478 510.785 150.302L490.872 151.61C488.108 119.553 487.187 87.2823 488.115 54.7884L512.277 55.8037C511.676 62.9593 511.231 70.0478 510.932 77.0715C510.635 84.0943 510.403 91.1845 510.235 98.3356C513.357 98.3341 516.479 98.3524 519.601 98.393C522.722 98.4348 525.8 98.54 528.837 98.7086C528.831 91.2999 528.893 83.9289 529.018 76.6065C529.141 69.2812 529.418 61.9148 529.849 54.5009L554.141 56.1612Z" fill="#00A47A"/>
<path d="M544.858 86.9345C545.376 86.9357 545.845 86.7598 546.279 86.4149C546.708 86.0719 546.924 85.5538 546.922 84.8635C546.922 84.347 546.706 83.8759 546.277 83.4405C545.844 83.0133 545.371 82.7957 544.854 82.7958C544.251 82.7965 543.758 83.0148 543.37 83.4453C542.983 83.876 542.789 84.3477 542.79 84.8668C542.788 86.2475 543.48 86.9355 544.858 86.9345Z" fill="white"/>
<path d="M548.21 78.1431C548.554 77.192 548.92 75.1038 549.307 71.8724C549.693 68.6409 549.969 64.9996 550.137 60.9497C549.966 60.2596 549.662 59.7014 549.233 59.2696C548.8 58.8411 548.242 58.6678 547.553 58.7537C546.948 58.8402 546.433 59.1227 546 59.5948C545.569 60.0698 545.355 60.6095 545.357 61.2111C545.357 62.1616 545.311 63.3884 545.231 64.8956C545.146 66.4032 544.995 67.9556 544.781 69.5507C544.568 71.1459 544.352 72.6758 544.139 74.1388C543.924 75.6052 543.772 76.7244 543.689 77.5027C543.515 78.1918 543.625 78.7726 544.012 79.2453C544.402 79.7183 544.937 79.9991 545.627 80.0843L545.888 80.0833C547.179 80.0826 547.954 79.4337 548.21 78.1431Z" fill="white"/>
<path d="M52.9258 145.786L29.4602 147.271C29.3765 141.756 29.3778 136.185 29.4641 130.627C31.4575 130.645 33.5031 130.653 35.5998 130.653C39.0401 130.653 42.6191 130.63 46.3366 130.584L49.9155 130.54L51.2605 102.651L46.8503 103.115C43.423 103.475 39.9734 103.795 36.5958 104.066C34.6312 104.223 32.6574 104.38 30.6784 104.537C30.881 102.028 31.1111 99.532 31.3647 97.0748C31.6496 94.3181 31.9437 91.5496 32.2535 88.7694L53.284 90.4302L54.9833 61.5124L1.56072 61.991L1.37772 65.5702C0.737224 78.0578 0.318935 90.6054 0.137243 102.855C0.0470512 108.087 0 113.576 0 119.169C0 124.812 0.0692643 130.495 0.206513 136.058C0.343762 141.657 0.552921 147.136 0.828726 152.342C1.10845 157.651 1.48359 162.561 1.94239 166.935L2.29664 170.313L55.927 170.794L52.9258 145.786Z" fill="#E1463A"/>
<path d="M53.6552 156.019L7.74742 155.609C7.2873 151.221 6.92391 146.425 6.64941 141.212C6.3736 136.003 6.16839 130.613 6.03114 125.035C5.8939 119.46 5.82593 113.858 5.82593 108.238C5.82593 102.617 5.87167 97.2016 5.96317 91.9903C6.14617 79.7434 6.55662 67.3579 7.19842 54.8351L52.969 54.4245L51.7377 75.4018L30.9059 73.7566C30.4471 77.7779 30.0144 81.777 29.604 85.7525C29.1935 89.7306 28.8511 93.7296 28.5766 97.7496C32.0483 97.4762 35.4979 97.2029 38.9239 96.927C42.3485 96.6537 45.7981 96.3346 49.2698 95.9697L48.3117 115.849C40.9107 115.94 34.0587 115.94 27.7544 115.849C27.5688 124.075 27.5688 132.257 27.7544 140.391L51.5991 138.883L53.6552 156.019Z" fill="#F87243"/>
<path d="M30.9046 57.1642C30.1713 57.2583 29.6027 57.5552 29.1909 58.0587C28.7805 58.5621 28.6197 59.1781 28.7125 59.9091C28.8001 60.6427 29.1008 61.2103 29.6027 61.6222C30.1046 62.0329 30.6759 62.195 31.3164 62.1035C34.6077 61.8275 37.801 61.8275 40.9094 62.1035H41.3199C42.7825 62.1035 43.6034 61.4169 43.7877 60.0477C43.8779 59.3154 43.7198 58.6995 43.308 58.196C42.8963 57.6938 42.3263 57.397 41.593 57.3028C39.767 57.121 37.984 57.0073 36.2508 56.9589C34.5136 56.9157 32.732 56.985 30.9046 57.1642Z" fill="white"/>
<path d="M47.4881 57.8534C46.0241 57.8534 45.2961 58.5844 45.2961 60.0477C45.2961 61.4169 46.0241 62.1035 47.4881 62.1035C48.9469 62.1035 49.6815 61.4169 49.6815 60.0477C49.6815 58.5831 48.9469 57.8534 47.4881 57.8534Z" fill="white"/>
<path d="M98.5053 59.7886C124.3 59.7886 141.05 81.5944 141.05 115.496C141.05 149.397 123.965 171.363 97.5002 171.363H63.5534V59.7886H98.5053ZM89.4611 142.713H99.1758C108.556 142.713 114.586 132.208 114.586 115.815C114.586 99.2612 107.997 88.4381 97.9475 88.4381H89.4611V142.713Z" fill="#E1463A"/>
<path d="M103.037 54.4245C126.108 54.4245 141.089 75.7718 141.089 108.961C141.089 142.149 125.808 163.653 102.138 163.653H71.7768V54.4245H103.037ZM94.9483 135.605H103.637C112.026 135.605 117.419 125.321 117.419 109.272C117.419 93.0671 111.527 82.4715 102.538 82.4715H94.9483V135.605Z" fill="#F87243"/>
<path d="M124.215 69.6773C122.751 69.6773 122.023 70.4083 122.023 71.8717C122.023 73.2409 122.751 73.9274 124.215 73.9274C125.673 73.9274 126.408 73.2409 126.408 71.8717C126.408 70.407 125.673 69.6773 124.215 69.6773Z" fill="white"/>
<path d="M117.644 68.2058C118.727 68.7745 119.644 68.5931 120.395 67.6651L120.453 67.4046C120.806 66.9722 120.897 66.479 120.726 65.9299C120.552 65.3823 120.171 64.9682 119.574 64.6896C117.588 63.5927 115.526 62.5881 113.39 61.676C111.254 60.7647 109.009 59.9207 106.66 59.1435C105.34 58.9992 104.464 59.572 104.034 60.8635C103.868 61.4483 103.895 61.9837 104.115 62.4714C104.337 62.9591 104.796 63.2794 105.492 63.4329C107.658 64.0621 109.756 64.763 111.796 65.5434C113.836 66.3231 115.787 67.2114 117.644 68.2058Z" fill="white"/>
<path d="M230.424 123.065C230.424 152.327 214.519 171.363 189.873 171.363C165.105 171.363 148.715 152.327 148.715 123.065V59.5087H176.882V123.065C176.882 133.921 182.952 140.999 189.995 140.999C196.915 140.999 202.257 134.077 202.257 123.065V59.5087H230.424V123.065Z" fill="#E1463A"/>
<path d="M233.876 118.905C233.876 146.837 217.971 165.007 193.325 165.007C168.557 165.007 152.167 146.837 152.167 118.905V58.2377H180.334V118.905C180.334 129.267 186.405 136.024 193.447 136.024C200.367 136.024 205.709 129.417 205.709 118.905V58.2377H233.876V118.905Z" fill="#F87243"/>
<path d="M227.222 92.9054C227.756 92.8307 228.214 92.5805 228.611 92.1613C229.003 91.7446 229.15 91.1786 229.047 90.467C228.971 89.9344 228.68 89.4801 228.173 89.0939C227.664 88.7167 227.145 88.5616 226.611 88.6376C225.99 88.7266 225.512 89.0241 225.175 89.525C224.839 90.0258 224.709 90.5407 224.786 91.0759C224.986 92.5002 225.801 93.1083 227.222 92.9054Z" fill="white"/>
<path d="M229.39 83.3472C229.606 82.3158 229.677 80.1086 229.602 76.7192C229.527 73.3298 229.278 69.5338 228.858 65.3325C228.58 64.6459 228.185 64.1146 227.679 63.7323C227.17 63.3538 226.569 63.2568 225.87 63.4465C225.26 63.6243 224.77 63.991 224.393 64.5415C224.018 65.0945 223.876 65.6825 223.966 66.3026C224.105 67.283 224.238 68.555 224.376 70.1211C224.509 71.6884 224.581 73.3116 224.595 74.988C224.609 76.6644 224.61 78.2739 224.605 79.8139C224.598 81.3578 224.605 82.5345 224.634 83.3492C224.555 84.0856 224.753 84.6685 225.222 85.0991C225.693 85.5298 226.287 85.741 227.011 85.7277L227.28 85.6885C228.611 85.4986 229.316 84.7156 229.39 83.3472Z" fill="white"/>
</svg>
